<svg xmlns="http://www.w3.org/2000/svg" width="569" height="168" viewBox="0 0 569 168">
  <defs>
    <style>
      .cls-1 {
        fill: #fff;
        fill-rule: evenodd;
      }
    </style>
  </defs>
  <path id="Clínica" class="cls-1" d="M171.752,48.223a31.379,31.379,0,0,1-7.612,6.636,16.172,16.172,0,0,1-8.243,2.12,15.174,15.174,0,0,1-11.892-5.285q-4.674-5.285-4.674-13.528a37.8,37.8,0,0,1,2.781-13.647,37.274,37.274,0,0,1,6.941-11.754q4.161-4.575,7.83-4.575a4.883,4.883,0,0,1,4.042,1.933,8.206,8.206,0,0,1,1.519,5.206,14.964,14.964,0,0,1-2.7,8.638q-2.7,3.944-5.857,3.944a3.844,3.844,0,0,1-3.471-2.327,5.677,5.677,0,0,0-1.7,3.944,4.968,4.968,0,0,0,1.972,4.062,7.83,7.83,0,0,0,5.049,1.578q5.836,0,10.195-5.226a18.7,18.7,0,0,0,4.359-12.365,11.744,11.744,0,0,0-3.609-8.914,12.984,12.984,0,0,0-9.328-3.431q-6.824,0-13.9,5.009A37.14,37.14,0,0,0,132,23.611a37.488,37.488,0,0,0-4.378,17.63q0,9.309,6.054,15.244t15.521,5.936a30.245,30.245,0,0,0,22.56-9.663V48.223Zm26.071-.039a54.019,54.019,0,0,1-7.336,6.389,8.505,8.505,0,0,1-4.536,1.538A3.818,3.818,0,0,1,182.6,54.1a10.173,10.173,0,0,1-1.262-5.443q0-1.538.316-5.64a70.307,70.307,0,0,0,11.6-16.092,34.889,34.889,0,0,0,3.707-15.579,11.51,11.51,0,0,0-.73-4.516q-0.729-1.676-1.873-1.676a2.52,2.52,0,0,0-.71.158L183.624,9.018A126.5,126.5,0,0,0,174.907,30.4q-3.59,11.6-3.589,19.879,0,5.522,2.584,8.8a8.241,8.241,0,0,0,6.8,3.274A15.418,15.418,0,0,0,188.416,60a56.689,56.689,0,0,0,9.407-7.277V48.183Zm-9.644-31.227q2.781-7.268,4.24-7.268a1.285,1.285,0,0,1,1.1.889,5.4,5.4,0,0,1,.434,2.35q0,4.977-3.116,11.889A48.123,48.123,0,0,1,182.717,37.3,136.428,136.428,0,0,1,188.179,16.956Zm29.049,31.227a40.339,40.339,0,0,1-4.91,4.851,5.223,5.223,0,0,1-3.1,1.144,1.706,1.706,0,0,1-1.439-.809,3.573,3.573,0,0,1-.572-2.111q-0.006-3.274,2.432-10.924l3.932-12.341H213.1l-9.993,2.09q-5.679,14.865-5.68,23.266a11.38,11.38,0,0,0,1.736,6.488,5.049,5.049,0,0,0,4.26,2.583q4.377,0,13.8-9.7V48.183ZM215.769,9.964A41.926,41.926,0,0,1,207.723,22.9l2.406,0.828a48.822,48.822,0,0,0,10.314-7.139,15.8,15.8,0,0,0,4.4-7.573ZM255.96,48.183q-6.447,7.612-9.333,7.612-1.936,0-1.937-2.373,0-1.779,2.326-7.735,3.391-8.677,3.391-12.459a5.53,5.53,0,0,0-1.339-3.8,4.28,4.28,0,0,0-3.347-1.517q-2.952,0-6.752,2.781a75.6,75.6,0,0,0-10.263,10,91.5,91.5,0,0,1,3.983-12.858l-9.624,1.854a78.073,78.073,0,0,0-4.752,12.779,47.57,47.57,0,0,0-1.479,12.03q0,2.6.433,7.928l8.717-2.051q0-3.55.118-5.64a60.12,60.12,0,0,1,.789-6.153,8.144,8.144,0,0,1,1.815-3.747l2.208-2.564q1.223-1.42,2.288-2.524,1.222-1.3,2.209-2.209A18.043,18.043,0,0,1,237.343,36a3.079,3.079,0,0,1,1.46-.552,1.013,1.013,0,0,1,.986,1.262q0,1.263-1.854,5.916-3.471,8.677-3.471,12.9a7.293,7.293,0,0,0,1.617,4.97,5.379,5.379,0,0,0,4.26,1.854q6.507,0,15.619-9.624V48.183Zm14.356-34.077a10.443,10.443,0,0,1-5.009-1.933,28.622,28.622,0,0,1-3.55,7.809,8.639,8.639,0,0,0,5.8,2.051q6.981,0,6.982-9.466a7.081,7.081,0,0,1-4.221,1.538h0Zm5.009,34.078a38.044,38.044,0,0,1-4.91,4.871,5.282,5.282,0,0,1-3.1,1.124,1.707,1.707,0,0,1-1.44-.809,3.577,3.577,0,0,1-.572-2.11q0-3.273,2.446-10.925L271.7,27.989h-0.474l-10.018,2.09q-5.679,14.87-5.679,23.271a11.387,11.387,0,0,0,1.735,6.488,5.05,5.05,0,0,0,4.26,2.583q4.575,0,13.8-9.7V48.183Zm29.5,0a37.5,37.5,0,0,1-6.41,5.62,10.839,10.839,0,0,1-6.014,1.834,7.3,7.3,0,0,1-6-2.8,11.628,11.628,0,0,1-2.248-7.494,19.508,19.508,0,0,1,2.386-9.7q2.387-4.26,5.266-4.26a2.258,2.258,0,0,1,1.952,1.065,4.868,4.868,0,0,1,.73,2.8q0,0.395-.237,2.15t-0.236,2.071c0,0.526.183,0.789,0.552,0.789a3.29,3.29,0,0,0,1.222-.394l4.576-2.169a4.27,4.27,0,0,0,1.558-1.1,2.746,2.746,0,0,0,.414-1.657,6.451,6.451,0,0,0-2.209-5.068,8.316,8.316,0,0,0-5.719-1.952q-7.139,0-13.272,7.119a23.3,23.3,0,0,0-6.133,15.52A11.4,11.4,0,0,0,286.8,62.343a17.868,17.868,0,0,0,8.776-2.327,44.592,44.592,0,0,0,9.249-7.3V48.183Zm42.123,0q-3.351,3.353-5.2,4.989a5.378,5.378,0,0,1-3.39,1.637q-2.4,0-2.405-3.391,0-3.234,2.689-11.951L342.12,27.91h-2.214l-8.061,4.457a6.977,6.977,0,0,0-6.9-4.536q-3.9,0-8.993,3.313a26.746,26.746,0,0,0-8.342,8.677,21.422,21.422,0,0,0-3.254,11.28,12.987,12.987,0,0,0,2.426,7.987,7.166,7.166,0,0,0,5.9,3.254,10.88,10.88,0,0,0,6.883-2.682,40.7,40.7,0,0,0,7.277-8.322q-0.356,11,5.877,11a9.452,9.452,0,0,0,5.206-1.814,82.944,82.944,0,0,0,9.032-7.809V48.183Zm-31.533,5.384a5.4,5.4,0,0,1-1.046-3.451,26.819,26.819,0,0,1,3.53-12.345q3.53-6.7,7.475-6.7a3.2,3.2,0,0,1,2.642,1.242,5.42,5.42,0,0,1,.986,3.451,27.216,27.216,0,0,1-3.49,12.4q-3.49,6.725-7.435,6.725A3.247,3.247,0,0,1,315.418,53.567Z"/>
  <path id="Patinhas" class="cls-1" d="M39.268,63.383Q23.342,77.1,23.343,91.923A17.925,17.925,0,0,0,26.5,102.132q3.152,4.692,6.7,4.691,2.365,0,8.278-2.838t5.913-4.967q0-2.049-2.681-3.232-6.781-2.759-6.78-10.17,0-11.194,12.535-20.617a45.462,45.462,0,0,1,27.988-9.421q10.248,0,16.241,5.243t5.992,14.152q0,10.566-8.672,21.287-3.707,4.889-3.705,5.676,0,1.419,2.483,3.154a8.057,8.057,0,0,0,4.454,1.734q5.281,0,12.575-7.529t7.293-19.986q0-13.482-9.855-21.563t-26.49-8.081Q55.193,49.665,39.268,63.383Zm49.827,3.075q-2.838,0-10.21,3.824T65.995,83.25q-5.519,9.147-8.239,31.339t-8.791,32.64q-6.072,10.447-14.98,10.446-7.884,0-7.884-9.382,0-.947.749-5.992t0.749-5.834a2.9,2.9,0,0,0-.946-2.168,3.188,3.188,0,0,0-2.286-.907q-1.972,0-7.569,3.154a36.827,36.827,0,0,0-7.411,5.006,6.532,6.532,0,0,0-1.813,4.77,15.5,15.5,0,0,0,6.269,12.693q6.27,4.966,16.287,4.967a47.177,47.177,0,0,0,25.907-7.528,46.252,46.252,0,0,0,17.271-18.8q5.481-11.274,7.96-30.861t4.823-25.78a27.66,27.66,0,0,1,7.5-10.848q-2.524-3.7-4.494-3.705h0Zm99.574,69.222q-6.7,6.7-10.4,9.973t-6.777,3.272q-4.808,0-4.807-6.778,0-6.463,5.374-23.89l6.954-23.1h-4.424l-16.114,8.909Q154.531,95,144.677,95q-7.806,0-17.976,6.623a53.461,53.461,0,0,0-16.674,17.345,42.815,42.815,0,0,0-6.5,22.548q0,9.46,4.848,15.965t11.787,6.5q7.1,0,13.757-5.361t14.546-16.635q-0.71,22,11.747,22,4.968,0,10.407-3.627t18.054-15.61v-9.066ZM125.637,146.44a10.788,10.788,0,0,1-2.089-6.9q0-11.274,7.056-24.677t14.94-13.4a6.4,6.4,0,0,1,5.282,2.484,10.827,10.827,0,0,1,1.971,6.9q0,11.353-6.977,24.8t-14.861,13.442A6.494,6.494,0,0,1,125.637,146.44ZM234,135.679q-7.659,8.121-11.606,10.682a14.517,14.517,0,0,1-7.974,2.563,5.835,5.835,0,0,1-4.778-2.327,9.4,9.4,0,0,1-1.855-6.036q0-5.445,2.737-14.652l5.252-17.667,12.23-.946,2.6-12.141-11.134.631,8.149-27.423-21.061,4.323-7.4,24.6-7.5.315-2.526,12.378,6.05-.315L191.848,121.6q-4.047,13.452-4.046,21.65,0,9.3,4.218,15.019a13.057,13.057,0,0,0,11,5.716q6.543,0,13.8-4.691T234,144.745v-9.066Zm28.7-68.118q-3.784,0-10.013-3.863a57.247,57.247,0,0,1-7.095,15.61,17.26,17.26,0,0,0,11.589,4.1q13.954,0,13.955-18.921a14.154,14.154,0,0,1-8.436,3.075h0Zm10.012,68.118q-6.7,7.491-9.815,9.736a10.556,10.556,0,0,1-6.189,2.247,3.412,3.412,0,0,1-2.878-1.616,7.147,7.147,0,0,1-1.143-4.218q0-6.543,4.888-21.838l7.884-24.677h-0.946l-20.025,4.179q-11.353,29.724-11.353,46.516,0,7.8,3.469,12.969t8.515,5.164q9.144,0,27.593-19.395v-9.066Zm77.421,0Q337.248,150.9,331.479,150.9q-3.873,0-3.873-4.744,0-3.558,4.65-15.463,6.779-17.344,6.778-24.9a11.059,11.059,0,0,0-2.676-7.6,8.556,8.556,0,0,0-6.69-3.032q-5.9,0-13.5,5.558T295.655,120.7q1.892-9.381,7.963-25.7L284.381,98.7a155.865,155.865,0,0,0-9.5,25.544,95.079,95.079,0,0,0-2.957,24.046q0,5.2.867,15.847l17.424-4.1q0-7.095.236-11.274a119.825,119.825,0,0,1,1.577-12.3,16.287,16.287,0,0,1,3.627-7.49l4.415-5.124q2.442-2.838,4.573-5.046,2.442-2.6,4.415-4.415a36.179,36.179,0,0,1,3.863-3.075,6.154,6.154,0,0,1,2.917-1.1q1.969,0,1.971,2.523T314.1,124.562q-6.937,17.346-6.938,25.781,0,6.228,3.233,9.934a10.749,10.749,0,0,0,8.515,3.705q13.008,0,31.22-19.237v-9.066Zm77.342,0q-13.557,15.216-18.6,15.216a3.112,3.112,0,0,1-2.482-1.339,4.808,4.808,0,0,1-1.064-3.075q0-3.783,5.652-18.678t5.652-22a11.237,11.237,0,0,0-2.488-7.614,8.192,8.192,0,0,0-6.511-2.88,17.024,17.024,0,0,0-7.1,1.577q-3.474,1.578-13.971,7.648,10.957-14.348,16.083-24.48t5.125-18.488a21.084,21.084,0,0,0-1.419-8.278q-1.419-3.311-3.469-3.311-1.106,0-8.791,2.641t-18.015,6.82q-13.877,22.706-20.34,42.967a143.173,143.173,0,0,0-6.465,43.756,146.6,146.6,0,0,0,1.025,17.976l17.581-4.1q0-20.34,2.759-34.847a79.771,79.771,0,0,1,12.615-11.708q5.99-4.3,9.145-4.3,3.075,0,3.075,3.233,0,2.838-3.863,12.141-7.255,17.188-7.254,26.648a12.855,12.855,0,0,0,3.509,9.264,11.75,11.75,0,0,0,8.869,3.666q12.063,0,30.748-19.395v-9.066Zm-41.47-60.707q8.041-15.531,12.378-15.531,2.6,0,2.6,4.73,0,15.533-28.146,48.25Q377.963,90.5,386.005,74.972ZM511.6,135.679q-6.7,6.7-10.4,9.973t-6.777,3.272q-4.808,0-4.807-6.778,0-6.463,5.374-23.89l6.954-23.1h-4.424L481.4,104.064Q477.458,95,467.6,95q-7.8,0-17.975,6.623a53.453,53.453,0,0,0-16.675,17.345,42.815,42.815,0,0,0-6.5,22.548q0,9.46,4.848,15.965t11.787,6.5q7.1,0,13.757-5.361t14.546-16.635q-0.709,22,11.748,22,4.966,0,10.406-3.627t18.055-15.61v-9.066ZM448.564,146.44a10.788,10.788,0,0,1-2.089-6.9q0-11.274,7.056-24.677t14.94-13.4a6.4,6.4,0,0,1,5.283,2.484,10.833,10.833,0,0,1,1.971,6.9q0,11.353-6.978,24.8t-14.861,13.442A6.494,6.494,0,0,1,448.564,146.44Zm61.219-8.79v7.095H511.6a210.4,210.4,0,0,0,23.179-30.2q1.733,5.6,7.1,13.874t5.358,13.244a13.753,13.753,0,0,1-4.218,9.581q-4.218,4.457-9.027,4.455t-6.78-6.465q-1.972-6.463-4.494-6.465-1.891,0-6.268,5.282t-4.375,7.175q0,3.234,4.415,6.071a17.7,17.7,0,0,0,9.776,2.838q12.376,0,23.928-11.195t11.55-23.258q0-6.071-4.725-13.17t-4.736-11.2a21.089,21.089,0,0,1,1.261-6.934,5.447,5.447,0,0,0,.631-2.442,0.637,0.637,0,0,0-.788-0.631,66.411,66.411,0,0,0-6.623.907q-5.518.907-10.959,2.326-6.7,18.528-26.017,39.1h0Z"/>
</svg>
