<?xml version="1.0" ?><svg height="32" id="svg8" version="1.1" viewBox="0 0 8.4666665 8.4666669" width="32" xmlns="http://www.w3.org/2000/svg" xmlns:cc="http://creativecommons.org/ns#" xmlns:dc="http://purl.org/dc/elements/1.1/" xmlns:inkscape="http://www.inkscape.org/namespaces/inkscape" xmlns:rdf="http://www.w3.org/1999/02/22-rdf-syntax-ns#" xmlns:sodipodi="http://sodipodi.sourceforge.net/DTD/sodipodi-0.dtd" xmlns:svg="http://www.w3.org/2000/svg"><defs id="defs2"/><g id="layer1" transform="translate(0,-288.53332)"><circle cx="60.613323" cy="311.48529" id="circle4695" r="0" style="fill:none;fill-rule:evenodd;stroke:#ffffff;stroke-width:0.5;stroke-miterlimit:4;stroke-dasharray:none;stroke-opacity:1"/><circle cx="49.982716" cy="320.27481" id="circle4771" r="0" style="fill:none;fill-rule:evenodd;stroke:#ffffff;stroke-width:1;stroke-miterlimit:4;stroke-dasharray:none;stroke-opacity:1"/><circle cx="60.632153" cy="320.27481" id="circle4783" r="0" style="fill:none;fill-rule:evenodd;stroke:#ffffff;stroke-width:1;stroke-miterlimit:4;stroke-dasharray:none;stroke-opacity:1"/><circle cx="71.74472" cy="320.27481" id="circle4791" r="0" style="fill:none;fill-rule:evenodd;stroke:#ffffff;stroke-width:1;stroke-miterlimit:4;stroke-dasharray:none;stroke-opacity:1"/><circle cx="61.940491" cy="324.0498" id="circle4807" r="0" style="fill:none;fill-rule:evenodd;stroke:#ffffff;stroke-width:0.5;stroke-miterlimit:4;stroke-dasharray:none;stroke-opacity:1"/><path d="m 2.4851624,289.6862 c -0.396052,-0.0168 -0.802092,0.11182 -1.147739,0.39688 -0.79005102,0.65157 -0.95754202,1.86516 -0.37517102,2.72076 l 1.77147002,2.60243 c 0.43578,0.64023 1.164429,0.89306 1.83451,0.70693 0.0021,-5.3e-4 0.003,-5.3e-4 0.005,-0.001 0.412578,-0.0761 0.799338,-0.31186 1.076409,-0.70177 l 1.785409,-2.51251 c 0.598993,-0.84293 0.45307,-2.06723 -0.327099,-2.74505 l -0.004,-0.004 c -0.780161,-0.67782 -1.890281,-0.54479 -2.489253,0.29817 l -0.409802,0.57671 -0.389644,-0.57259 c -0.327578,-0.48127 -0.820431,-0.74368 -1.329637,-0.76531 z" id="path4683" style="opacity:1;fill:none;fill-opacity:1;fill-rule:nonzero;stroke:#ffffff;stroke-width:1;stroke-linecap:square;stroke-linejoin:miter;stroke-miterlimit:4;stroke-dasharray:none;stroke-dashoffset:6.80813837;stroke-opacity:1;paint-order:stroke fill markers"/><path d="m 4.2099414,293.13731 c 0,0.0374 0,0.96188 0,0.96188" id="path4691" style="opacity:1;fill:none;fill-opacity:1;fill-rule:nonzero;stroke:#ffffff;stroke-width:0.5;stroke-linecap:square;stroke-linejoin:miter;stroke-miterlimit:4;stroke-dasharray:none;stroke-dashoffset:6.80813837;stroke-opacity:1;paint-order:markers fill stroke"/><path d="m 4.6908824,293.61825 c -0.0373,0 -0.961882,0 -0.961882,0" id="path4693" style="opacity:1;fill:none;fill-opacity:1;fill-rule:nonzero;stroke:#ffffff;stroke-width:0.5;stroke-linecap:square;stroke-linejoin:miter;stroke-miterlimit:4;stroke-dasharray:none;stroke-dashoffset:6.80813837;stroke-opacity:1;paint-order:markers fill stroke"/></g></svg>